<svg
    width="93"
    height="91"
    viewBox="0 0 93 91"
    fill="none"
    xmlns="http://www.w3.org/2000/svg"
>
    <g id="Gestural Line/star 1">
        <path
            id="star 1"
            d="M63.1582 46.7878C65.7082 46.5678 99.8282 38.3178 90.8782 36.5278C87.5582 37.4578 84.9782 36.5178 83.3182 39.0378C82.8382 36.0678 76.3282 40.8078 75.3282 40.9878C74.8782 38.7378 64.6782 44.5278 66.1682 42.4378C61.5382 42.4978 55.7882 44.1177 49.8082 46.0177C46.8782 44.0277 59.4382 29.8278 54.1582 32.8978C54.5282 32.0978 55.9482 28.6378 55.7582 30.9278C57.4282 28.9678 75.6082 -1.03222 68.0482 4.04778C62.9482 10.2378 59.1182 20.6078 54.7982 25.7278C50.5982 27.4578 47.6882 42.3178 43.0082 40.8378C40.2782 37.4978 33.2382 -3.40217 28.2382 0.227831C29.1082 3.40783 28.3182 6.25777 30.7482 7.78777C27.7782 8.26777 32.5182 14.7778 32.6982 15.7778C30.4982 16.1978 36.1982 26.4378 34.1482 24.9378C34.1882 27.8278 34.8382 31.1678 35.7782 34.7178C34.5282 33.7678 33.1582 31.5978 32.3682 31.2778C23.9482 27.8678 17.5682 20.0278 8.7982 15.7778C1.4282 25.1678 66.5982 48.8577 26.1882 52.3978C18.5882 57.3577 8.48819 58.1177 0.00819142 62.8877C-0.721809 73.2177 47.6182 44.7178 33.6682 61.0878C31.4982 68.0078 28.2782 75.7778 23.8282 82.5978C20.9882 108.608 45.1382 37.9478 44.1382 64.9078C47.4682 71.3478 50.6882 79.1078 52.3382 87.0978C64.1482 104.418 48.0282 58.5978 46.3382 52.1078C52.7382 49.3778 77.4782 80.3378 81.9582 75.4578C82.1682 74.7678 78.6082 70.9378 77.5282 70.5278C76.7982 70.8978 76.4282 71.1977 75.9982 70.5177C78.1682 68.4277 70.5582 65.7878 69.8382 65.0678C71.4382 63.4778 60.8482 58.3077 63.4182 58.3877C61.4382 55.6177 58.4082 52.8277 54.9582 50.0177C61.0782 48.8377 63.7382 44.5177 63.1782 46.7677L63.1582 46.7878Z"
            fill="#FCA700"
        />
    </g>
</svg>