<svg
    width="74"
    height="71"
    viewBox="0 0 74 71"
    fill="none"
    xmlns="http://www.w3.org/2000/svg"
>
    <g id="Gestural Line/symbol check 1">
        <path
            id="Vector"
            d="M44.0389 33.5379C45.8049 32.3341 51.7382 25.3965 46.0606 27.0247C44.5346 28.2363 37.5403 37.5739 33.6984 42.3892C32.8541 40.4137 30.4297 38.2529 28.6559 37.1571C27.5793 36.1616 27.1455 37.8054 27.1455 37.8054C27.4476 38.2453 27.7652 38.9397 28.501 39.4954C29.3221 40.1127 29.4305 41.3937 30.7783 42.3738C35.5186 45.8078 33.3808 50.8623 37.9663 42.1036C39.5464 38.2606 43.5122 37.0105 44.0312 33.5379H44.0389Z"
            fill="#82B536"
        />
        <path
            id="Vector_2"
            d="M73.9993 33.2525C74.0381 23.2745 72.4037 7.62464 61.5132 3.92824C69.0653 14.0065 73.643 30.2429 69.4371 42.7366C65.541 62.5305 35.4644 73.635 17.3394 62.1677C19.1984 63.9272 23.4508 65.9259 26.0611 66.6976C19.1364 68.1947 3.56753 50.7699 14.5897 60.2539C-16.6875 20.4424 32.8308 -17.6327 61.3351 16.7538C53.2486 1.15796 32.2499 -4.17445 19.3146 3.41126C-43.0075 52.5834 64.6115 110.815 73.9916 33.2525H73.9993Z"
            fill="#82B536"
        />
    </g>
</svg>