<svg width="239" height="87" viewBox="0 0 239 87" fill="none" xmlns="http://www.w3.org/2000/svg">
    <path fill-rule="evenodd" clip-rule="evenodd"
        d="M253.675 25.7981C260.306 50.5453 285.743 65.2315 310.49 58.6005L322.457 103.261C273.044 116.502 222.254 87.1778 209.014 37.7649L253.675 25.7981Z"
        fill="#93B652"></path>
    <rect width="64.7583" height="64.7583" transform="matrix(-0.302464 0.953161 0.953161 0.302464 161.722 0)"
        fill="#F3AF3D"></rect>
    <path d="M58.3627 65.1631L140.035 24.5933L165.519 63.1728L83.8468 103.743L58.3627 65.1631Z" fill="#BF63F3"></path>
    <circle cx="26.5061" cy="26.5061" r="26.5061" transform="matrix(-1 -8.74228e-08 -8.74228e-08 1 80.4199 20.7056)"
        fill="#1868DB"></circle>
    <path fill-rule="evenodd" clip-rule="evenodd"
        d="M149.416 38.7959L142.139 61.7276L158.184 66.8191L165.52 63.1751L149.416 38.7959Z" fill="#AE2A19"></path>
    <path fill-rule="evenodd" clip-rule="evenodd"
        d="M62.9651 72.1314C70.821 69.2773 76.9451 62.8142 79.333 54.7466L58.3625 65.1635L62.9651 72.1314Z"
        fill="#09326C"></path>
    <path
        d="M444.848 87.71C434.261 83.7433 415.337 54.2575 380.666 55.5797C345.994 56.9019 368.756 75.6777 362.007 87.71C355.258 99.7423 319.263 71.5787 259.051 55.5797C198.839 39.5807 138.76 35.4818 153.449 55.5797C168.138 75.6776 201.618 97.0979 177.533 101.065C153.449 105.031 77.2244 43.5473 49.1697 55.5797C26.7259 65.2056 7.7051 81.0107 1.00019 87.71"
        stroke="#101214" stroke-width="2"></path>
</svg>