<svg width="48" height="48" viewBox="0 0 48 48" fill="none" xmlns="http://www.w3.org/2000/svg">
<path d="M30.5149 25.3153C30.5949 24.8703 30.6349 24.3903 30.6349 23.8903C30.6349 23.3903 30.5949 22.9003 30.5099 22.4453C30.0249 19.7503 28.1549 18.0903 25.5249 17.6603C25.0749 17.5853 24.6049 17.5503 24.1199 17.5503C23.6349 17.5503 23.1199 17.5903 22.6549 17.6703C20.0299 18.1103 18.1599 19.7653 17.6749 22.4453C17.5949 22.9003 17.5499 23.3803 17.5499 23.8903C17.5499 24.4003 17.5899 24.8703 17.6699 25.3153C18.1499 27.9903 20.0199 29.6503 22.6549 30.0903C23.1199 30.1703 23.6099 30.2103 24.1199 30.2103C24.6299 30.2103 25.0799 30.1753 25.5249 30.1003C28.1549 29.6703 30.0299 28.0103 30.5099 25.3153H30.5149Z" fill="#FCA700"/>
<path d="M8.84497 23.1801L16.645 9.81006L24.445 23.1801H8.84497Z" fill="#BF63F3"/>
<path d="M21.415 17.9902C19.445 18.6802 18.0749 20.2052 17.6749 22.4452C17.6299 22.6852 17.6 22.9252 17.575 23.1802H24.44L21.415 17.9902Z" fill="#AE2A19"/>
<path d="M35.8999 25.0601H24.9399V36.0201H35.8999V25.0601Z" fill="#82B536"/>
<path d="M24.9399 25.0649V30.1749C25.1399 30.1549 25.3349 30.1299 25.5299 30.0999C28.1599 29.6749 30.0299 28.0099 30.5149 25.3149C30.5299 25.2349 30.5449 25.1499 30.5549 25.0649H24.9399Z" fill="#AE2A19"/>
<path d="M39.1887 28.9301C39.2072 28.7551 38.3134 26.6288 38.0682 27.3342C38.1994 27.6824 38.2807 28.1427 38.3915 28.4922C38.4672 28.7755 38.5422 29.1161 38.6053 29.413C38.5001 29.3294 38.3859 29.2435 38.2567 29.1544C38.2591 29.227 38.2608 29.3011 38.2984 29.358C37.1415 28.0774 35.216 27.3418 33.6103 26.5693C33.6122 26.6208 33.5482 26.6341 33.5103 26.5927L33.5482 26.5451C32.5066 26.2686 31.9057 25.8661 30.8386 25.7841C30.8386 25.7841 30.9702 25.7417 30.9736 25.7414C28.0471 25.0023 24.52 24.454 21.5768 25.9355C19.2132 21.1728 12.3985 21.5929 10.1171 26.4704C10.1056 26.563 10.2524 26.4383 10.6155 26.063L10.5965 26.1836C11.2414 25.2622 12.1663 24.6788 12.9528 24.0231C13.038 23.7802 13.0333 23.7537 13.3646 23.5979C14.781 23.5287 16.1215 22.3002 18.1474 23.4679C18.1268 23.4657 17.9956 23.4664 17.9779 23.469C18.6481 23.7978 20.0654 24.6101 20.5309 25.275C20.6697 25.4504 20.6721 25.4934 20.4369 25.3186C20.6386 25.6093 20.8382 25.9269 21.0213 26.2704C20.4153 26.6629 19.8717 27.2124 19.4844 27.809L19.5033 27.7965L19.5042 27.8092C19.6742 27.5361 20.743 26.5858 21.1051 26.4317C18.836 28.2891 18.8209 29.7411 18.8226 29.6371C18.53 33.0067 24.4332 31.7959 22.0886 26.9387C22.0977 27.0631 22.3957 27.6393 22.2573 27.8044C22.1534 27.3986 21.9921 27.0212 21.8169 26.6674C21.8461 26.6577 21.8821 26.6179 21.9069 26.6255C21.9069 26.6255 21.9054 26.6214 21.9047 26.6193C23.5031 25.8042 25.4268 25.7381 27.0668 25.9955L27.032 25.966C31.2015 25.981 35.1655 27.7223 38.5886 30.0668C38.5763 30.1538 38.5703 30.2191 38.5765 30.2202C38.2421 30.4234 37.1892 30.3914 36.9711 30.7093L36.4233 30.7335C36.2376 30.8897 35.9893 31.0004 36.106 31.1066C36.2227 31.2128 38.7304 31.0077 39.3386 30.5882L39.3303 30.5845C39.3303 30.5845 39.528 30.4756 39.528 30.5053C39.517 30.0066 39.5284 29.3015 39.1886 28.9265L39.1887 28.9301ZM21.695 28.0507C22.2985 33.237 16.8435 29.935 21.3472 26.955C21.4955 27.3021 21.6142 27.6674 21.695 28.0507ZM38.2984 29.358C38.3233 29.3429 38.3437 29.3346 38.3525 29.3333C38.3471 29.3343 38.3315 29.3396 38.2984 29.358ZM38.3533 29.3389L38.3385 29.3462C38.3499 29.3391 38.3573 29.3337 38.3525 29.3333C38.358 29.3322 38.3593 29.3328 38.3519 29.3383L38.3533 29.3389Z" fill="#101214"/>
</svg>
