<svg width="48" height="48" viewBox="0 0 48 48" fill="none" xmlns="http://www.w3.org/2000/svg">
<path d="M35.275 13.0898L24.365 17.4548V29.0948L35.275 33.4598V13.0898Z" fill="#1868DA"/>
<path d="M27.16 18.1797V28.3497H21.455V34.9097H17.09V28.3497H12.725V18.1797H27.16Z" fill="#FCA700"/>
<path d="M27.16 18.1797H24.365V28.3447H27.16V18.1797Z" fill="#AE2A19"/>
<path d="M45.1753 32.9691C48.8387 27.5787 48.1016 23.1083 47.5146 20.1523C48.032 18.5841 43.8985 11.5261 44.9972 15.9212C46.6134 17.8095 47.4089 24.2138 45.8623 27.7428C46.7052 28.7757 42.3102 35.4007 45.1753 32.9664L45.1753 32.9691Z" fill="#101214"/>
<path d="M42.5772 30.0452C44.5494 27.9498 44.3407 24.87 44.1849 23.6005C44.8247 24.6226 44.5299 21.9032 44.2044 21.462C44.2323 21.8924 43.9457 21.6665 43.9151 21.3088C44.6829 21.1958 42.8832 16.4725 41.9541 17.7582C42.2629 18.3312 41.9875 18.6163 42.5994 18.6674C41.8734 18.9552 42.911 19.5442 42.9916 19.7406C42.8498 20.1602 42.6745 20.1494 43.0946 20.6955C43.0946 21.4271 42.8859 22.4734 43.1224 23.7026C43.1808 25.416 42.6328 26.3467 42.4909 27.7643C42.2628 28.3614 40.8053 31.3444 42.5716 30.0506L42.5772 30.0452Z" fill="#101214"/>
<path d="M39.7622 27.4687C40.4938 26.6295 40.9249 25.5697 40.8275 24.0849C40.2907 24.709 40.3046 24.1253 40.5633 23.7272C41.153 24.518 41.0083 22.03 40.5021 22.6702C40.3797 22.5034 40.4548 22.3178 40.5939 22.4442C41.0306 21.5162 38.8943 18.6785 39.356 20.9864C39.7343 20.8788 38.8108 21.2876 39.7149 21.5916C39.4645 21.9466 39.3282 21.8336 39.6759 22.1456C39.6537 22.4738 39.2364 23.1193 39.5035 23.7783C39.7316 24.7171 38.8804 25.0587 39.3783 25.7634C39.0056 26.183 38.6134 28.1842 39.765 27.4633L39.7622 27.4687Z" fill="#101214"/>
</svg>
