<svg width="48" height="48" viewBox="0 0 48 48" fill="none" xmlns="http://www.w3.org/2000/svg">
<path fill-rule="evenodd" clip-rule="evenodd" d="M16.41 11.2451H21.075L22.54 15.1601L26.665 14.4751L28.995 18.5151L26.34 21.7451L28.995 24.9701L26.665 29.0101L22.545 28.3251L21.08 32.2401H16.415L14.95 28.3251L10.83 29.0101L8.5 24.9701L11.155 21.7451L8.5 18.5201L10.83 14.4801L14.955 15.1651L16.42 11.2501L16.41 11.2451ZM18.74 25.6751C20.915 25.6751 22.675 23.9151 22.675 21.7401C22.675 19.5651 20.915 17.8051 18.74 17.8051C16.565 17.8051 14.805 19.5651 14.805 21.7401C14.805 23.9151 16.565 25.6751 18.74 25.6751Z" fill="#82B536"/>
<path fill-rule="evenodd" clip-rule="evenodd" d="M29.555 20.52H33.405L34.615 23.75L38.02 23.185L39.945 26.52L37.75 29.185L39.94 31.85L38.015 35.185L34.61 34.62L33.4 37.85H29.55L28.34 34.62L24.935 35.185L23.01 31.85L25.2 29.185L23.01 26.52L24.935 23.185L28.34 23.75L29.55 20.52H29.555ZM31.48 32.435C33.275 32.435 34.73 30.98 34.73 29.185C34.73 27.39 33.275 25.935 31.48 25.935C29.685 25.935 28.23 27.39 28.23 29.185C28.23 30.98 29.685 32.435 31.48 32.435Z" fill="#FCA700"/>
<path fill-rule="evenodd" clip-rule="evenodd" d="M26.34 21.74L28.995 18.515L26.665 14.475L22.54 15.16L21.075 11.25H16.41L14.94 15.16L10.82 14.475L8.48999 18.515L11.145 21.74L8.48999 24.97L10.82 29.01L14.94 28.32L16.41 32.235H21.075L22.54 28.32L24.81 28.7L26.665 29.01L28.995 24.97L27.935 23.68L26.34 21.74ZM18.74 25.675C16.57 25.675 14.805 23.915 14.805 21.74C14.805 19.565 16.57 17.805 18.74 17.805C20.91 17.805 22.675 19.57 22.675 21.74C22.675 23.91 20.915 25.675 18.74 25.675Z" fill="#82B536"/>
<path fill-rule="evenodd" clip-rule="evenodd" d="M27.935 23.6801L24.94 23.1851L23.015 26.5201L24.81 28.7001L26.665 29.0101L28.995 24.9701L27.935 23.6801Z" fill="#AE2A19"/>
<path d="M43.8772 20.5715C43.8633 20.4818 43.8353 20.3259 43.7594 20.1053L43.8478 20.169C43.4203 19.2989 43.007 18.321 42.3138 17.6925C42.2817 17.6707 42.2267 17.6347 42.2211 17.6626C42.1369 17.7614 41.9628 17.4997 41.859 17.4085C41.7411 16.4496 38.9527 15.2764 38.0729 14.7283C38.0935 14.7293 38.2178 14.7379 38.2345 14.7378C38.0442 14.3956 34.6344 13.7391 35.3836 13.744C35.0831 13.6444 34.7581 13.554 34.4148 13.4758C34.5649 12.5347 34.3631 11.4826 34.0371 10.6794L34.0326 10.7256C32.1913 7.33649 26.1948 4.52555 22.9529 7.27589C24.8233 6.87835 26.9058 6.35945 28.9764 7.35601C28.9718 7.3131 29.0294 7.29955 29.0634 7.33584L29.0311 7.37653C29.957 7.64377 30.4157 8.08599 31.2574 8.49657C31.2561 8.49625 31.1376 8.48634 31.1347 8.487C32.6097 9.53761 33.9609 11.4009 33.7329 13.3456C23.8555 11.906 31.2476 22.4629 34.3047 14.0205C38.0512 14.4906 42.361 17.5748 43.8766 20.5742L43.8772 20.5715ZM33.6306 13.8923C33.2751 15.0288 32.4926 16.4241 31.2275 16.6503L31.2426 16.6568L31.2367 16.6637C31.7759 16.7084 32.3603 16.3022 32.6901 15.9303C32.1517 17.0702 30.5351 17.1451 29.7303 16.2608L29.7816 16.222C30.0214 16.4708 30.3665 16.6315 30.6989 16.6472C27.2874 14.8546 31.3217 13.5311 33.2589 13.8836C33.215 13.8254 32.661 13.9023 32.525 13.7447C32.9058 13.7501 33.2869 13.7653 33.6527 13.8031L33.6306 13.8923Z" fill="#101214"/>
</svg>
