<svg width="48" height="48" viewBox="0 0 48 48" fill="none" xmlns="http://www.w3.org/2000/svg">
<path d="M39.9298 21.7451H15.5748V33.6451H39.9298V21.7451Z" fill="#BF63F3"/>
<path d="M32.3599 14.355H8.00488V26.255H32.3599V14.355Z" fill="#FCA700"/>
<path d="M32.3598 21.7451H15.5748V26.2551H32.3598V21.7451Z" fill="#AE2A19"/>
<path fill-rule="evenodd" clip-rule="evenodd" d="M38.4148 26.045L33.1698 31.29L30.4598 28.505L31.6298 27.37L33.1898 28.97L37.2648 24.895L38.4198 26.05L38.4148 26.045Z" fill="white"/>
<path d="M21.8364 10.764C21.5613 10.7076 21.4097 10.4362 21.0784 10.5974C20.0846 11.0837 18.8128 12.6744 18.4113 13.3353C17.4484 13.827 15.7302 16.0249 15.0424 17.1615C14.6297 17.895 13.4702 19.7972 13.4702 19.7972L13.327 19.7866C13.327 19.7866 11.0979 16.9223 9.96369 16.3366C9.76156 16.2721 9.53977 16.3339 9.34606 16.6214C9.24218 16.7235 10.0086 17.6316 10.1883 17.6424C10.3624 17.551 11.1625 18.7225 11.651 19.3137C13.181 21.173 13.4786 21.3341 14.2001 20.7377C15.4017 19.7435 20.5927 12.6475 21.8364 10.7613V10.764Z" fill="#101214"/>
</svg>
