<svg width="48" height="48" viewBox="0 0 48 48" fill="none" xmlns="http://www.w3.org/2000/svg">
<path d="M37.97 12.4648H10.03V30.7598H37.97V12.4648Z" fill="#BF63F3"/>
<path d="M31.505 33.2651V36.3751H16.495V33.2651H21.495V27.6851H26.505V33.2651H31.505Z" fill="#FCA700"/>
<path d="M26.505 27.6851H21.495V30.7651H26.505V27.6851Z" fill="#AE2A19"/>
<path d="M24 25.9549C26.397 25.9549 28.34 24.0118 28.34 21.6149C28.34 19.218 26.397 17.2749 24 17.2749C21.6031 17.2749 19.66 19.218 19.66 21.6149C19.66 24.0118 21.6031 25.9549 24 25.9549Z" fill="white"/>
<path d="M38.5963 12.6714C39.0104 12.6364 44.5511 11.3216 43.0977 11.0363C42.5586 11.1845 42.1396 11.0347 41.8701 11.4363C41.7921 10.963 40.735 11.7184 40.5726 11.7471C40.4995 11.3885 38.8431 12.3113 39.0851 11.9782C38.3332 11.9877 37.3995 12.2459 36.4284 12.5487C35.9526 12.2316 37.9922 9.9685 37.1348 10.4578C37.1949 10.3303 37.4255 9.77886 37.3946 10.1438C37.6658 9.83145 40.618 5.05034 39.3904 5.85994C38.5622 6.84644 37.9402 8.49912 37.2387 9.3151C36.5567 9.59081 36.0841 11.959 35.3242 11.7232C34.8808 11.1909 33.7376 4.67264 32.9257 5.25115C33.0669 5.75795 32.9387 6.21215 33.3333 6.45598C32.851 6.53248 33.6207 7.56998 33.6499 7.72935C33.2927 7.79629 34.2183 9.42824 33.8854 9.18919C33.8919 9.64977 33.9974 10.1821 34.1501 10.7478C33.9471 10.5964 33.7246 10.2506 33.5963 10.1996C32.229 9.65614 31.193 8.40667 29.7688 7.72935C28.572 9.22584 39.1549 13.0013 32.5928 13.5655C31.3586 14.356 29.7185 14.4771 28.3414 15.2373C28.2229 16.8836 36.0728 12.3415 33.8074 14.9504C33.4551 16.0533 32.9322 17.2916 32.2095 18.3785C31.7483 22.5237 35.67 11.2626 35.5077 15.5592C36.0484 16.5856 36.5713 17.8223 36.8392 19.0956C38.7571 21.8559 36.1394 14.5536 35.8649 13.5193C36.9042 13.0842 40.9217 18.0183 41.6492 17.2406C41.6833 17.1306 41.1052 16.5202 40.9298 16.4549C40.8113 16.5138 40.7512 16.5616 40.6814 16.4533C41.0338 16.1202 39.798 15.6995 39.6811 15.5847C39.9409 15.3313 38.2212 14.5074 38.6385 14.5201C38.317 14.0787 37.8249 13.634 37.2647 13.1862C38.2585 12.9981 38.6905 12.3096 38.5995 12.6682L38.5963 12.6714Z" fill="#101214"/>
</svg>
